<?xml version="1.0" standalone="no"?>
<!DOCTYPE svg PUBLIC "-//W3C//DTD SVG 20010904//EN"
 "http://www.w3.org/TR/2001/REC-SVG-20010904/DTD/svg10.dtd">
<svg version="1.0" xmlns="http://www.w3.org/2000/svg"
 width="1024.000000pt" height="1024.000000pt" viewBox="0 0 1024.000000 1024.000000"
 preserveAspectRatio="xMidYMid meet">

<g transform="translate(0.000000,1024.000000) scale(0.100000,-0.100000)"
fill="#000000" stroke="none">
<path d="M7040 10080 l0 -160 -160 0 -160 0 0 -160 0 -160 -1600 0 -1600 0 0
160 0 160 -480 0 -480 0 0 -160 0 -160 -160 0 -160 0 0 -160 0 -160 -160 0
-160 0 0 -160 0 -160 -160 0 -160 0 0 -320 0 -320 -160 0 -160 0 0 -320 0
-320 -160 0 -160 0 0 -480 0 -480 -160 0 -160 0 0 -2400 0 -2400 160 0 160 0
0 -320 0 -320 160 0 160 0 0 -160 0 -160 160 0 160 0 0 -160 0 -160 160 0 160
0 0 -160 0 -160 320 0 320 0 0 160 0 160 160 0 160 0 0 160 0 160 160 0 160 0
0 320 0 320 160 0 160 0 0 -160 0 -160 320 0 320 0 0 -160 0 -160 -160 0 -160
0 0 -320 0 -320 160 0 160 0 0 -160 0 -160 160 0 160 0 0 160 0 160 160 0 160
0 0 160 0 160 160 0 160 0 0 160 0 160 480 0 480 0 0 -160 0 -160 160 0 160 0
0 -160 0 -160 320 0 320 0 0 480 0 480 320 0 320 0 0 -160 0 -160 160 0 160 0
0 -160 0 -160 320 0 320 0 0 160 0 160 160 0 160 0 0 160 0 160 160 0 160 0 0
640 0 640 -160 0 -160 0 0 320 0 320 160 0 160 0 0 160 0 160 160 0 160 0 0
160 0 160 160 0 160 0 0 160 0 160 160 0 160 0 0 320 0 320 -160 0 -160 0 0
160 0 160 -160 0 -160 0 0 -160 0 -160 -160 0 -160 0 0 160 0 160 -320 0 -320
0 0 160 0 160 160 0 160 0 0 320 0 320 160 0 160 0 0 640 0 640 -160 0 -160 0
0 800 0 800 -160 0 -160 0 0 160 0 160 -160 0 -160 0 0 160 0 160 -160 0 -160
0 0 320 0 320 -480 0 -480 0 0 -160z m1280 -2560 l0 -160 -160 0 -160 0 0
-160 0 -160 -480 0 -480 0 0 160 0 160 480 0 480 0 0 160 0 160 160 0 160 0 0
-160z m-3200 -640 l0 -160 -480 0 -480 0 0 160 0 160 480 0 480 0 0 -160z
m960 0 l0 -160 -320 0 -320 0 0 160 0 160 320 0 320 0 0 -160z m640 -160 l0
-320 160 0 160 0 0 -160 0 -160 -160 0 -160 0 0 -800 0 -800 160 0 160 0 0
640 0 640 160 0 160 0 0 -800 0 -800 -160 0 -160 0 0 -160 0 -160 -320 0 -320
0 0 -160 0 -160 320 0 320 0 0 -160 0 -160 -160 0 -160 0 0 -320 0 -320 160 0
160 0 0 -160 0 -160 -160 0 -160 0 0 160 0 160 -160 0 -160 0 0 480 0 480
-160 0 -160 0 0 -480 0 -480 -160 0 -160 0 0 -160 0 -160 -320 0 -320 0 0 160
0 160 -320 0 -320 0 0 160 0 160 -160 0 -160 0 0 160 0 160 -160 0 -160 0 0
-160 0 -160 -160 0 -160 0 0 -160 0 -160 -160 0 -160 0 0 -160 0 -160 -160 0
-160 0 0 640 0 640 -160 0 -160 0 0 480 0 480 160 0 160 0 0 -160 0 -160 160
0 160 0 0 -160 0 -160 160 0 160 0 0 -160 0 -160 320 0 320 0 0 -160 0 -160
160 0 160 0 0 320 0 320 -160 0 -160 0 0 800 0 800 160 0 160 0 0 -160 0 -160
160 0 160 0 0 -160 0 -160 -160 0 -160 0 0 -320 0 -320 320 0 320 0 0 640 0
640 160 0 160 0 0 -160 0 -160 160 0 160 0 0 320 0 320 160 0 160 0 0 320 0
320 160 0 160 0 0 320 0 320 160 0 160 0 0 -320z m-1280 -640 l0 -320 -320 0
-320 0 0 160 0 160 160 0 160 0 0 160 0 160 160 0 160 0 0 -320z m3520 -1600
l0 -320 160 0 160 0 0 160 0 160 160 0 160 0 0 160 0 160 160 0 160 0 0 -320
0 -320 -160 0 -160 0 0 -160 0 -160 -160 0 -160 0 0 -160 0 -160 -160 0 -160
0 0 -160 0 -160 -160 0 -160 0 0 -160 0 -160 -160 0 -160 0 0 -160 0 -160
-160 0 -160 0 0 -160 0 -160 -160 0 -160 0 0 -160 0 -160 -160 0 -160 0 0 320
0 320 160 0 160 0 0 160 0 160 160 0 160 0 0 160 0 160 160 0 160 0 0 160 0
160 160 0 160 0 0 640 0 640 160 0 160 0 0 -320z m-5120 -2720 l0 -160 -160 0
-160 0 0 160 0 160 160 0 160 0 0 -160z"/>
</g>
</svg>
